<?xml version="1.0" standalone="no"?>
<!DOCTYPE svg PUBLIC "-//W3C//DTD SVG 20010904//EN"
 "http://www.w3.org/TR/2001/REC-SVG-20010904/DTD/svg10.dtd">
<svg version="1.0" xmlns="http://www.w3.org/2000/svg"
 width="2000.000000pt" height="1303.000000pt" viewBox="0 0 2000.000000 1303.000000"
 preserveAspectRatio="xMidYMid meet">

<g transform="translate(0.000000,1303.000000) scale(0.100000,-0.100000)"
fill="#000000" stroke="none">
<path d="M13480 12342 c-8 -2 -23 -14 -32 -26 -16 -19 -18 -52 -18 -326 0
-469 41 -738 150 -975 5 -11 30 -71 56 -133 75 -183 157 -303 324 -476 175
-181 363 -325 663 -507 61 -37 177 -108 257 -156 80 -48 152 -92 161 -98 9 -5
32 -19 50 -29 62 -34 375 -249 532 -364 280 -206 576 -546 741 -854 106 -197
276 -599 343 -808 62 -197 89 -310 108 -447 7 -57 33 -134 53 -155 22 -25 49
-22 68 8 15 23 16 51 11 268 -8 287 -20 446 -48 616 -46 284 -145 587 -337
1025 -92 212 -132 290 -207 407 -261 401 -522 659 -970 958 -104 70 -213 140
-242 156 -322 182 -767 467 -898 574 -201 165 -443 453 -522 620 -106 224
-134 316 -161 547 -7 57 -22 98 -22 60 0 -9 -4 -19 -10 -22 -6 -4 -7 1 -3 11
5 13 2 16 -8 12 -20 -8 -49 15 -54 43 -5 28 2 41 29 56 20 11 10 23 -14 15z
m268 -1549 c39 -60 82 -121 97 -138 32 -37 51 -69 37 -64 -32 12 -234 309
-209 309 2 0 36 -48 75 -107z"/>
<path d="M8093 12153 c-30 -6 -62 -109 -74 -238 -6 -55 -12 -122 -15 -150 -20
-186 -24 -389 -10 -515 29 -249 129 -578 229 -750 139 -238 346 -464 581 -635
55 -41 118 -88 140 -105 21 -16 43 -30 48 -30 6 0 31 -20 56 -45 25 -25 49
-45 53 -45 4 0 24 -15 43 -32 62 -57 179 -148 190 -148 6 0 44 -31 75 -60 9
-9 32 -27 51 -42 55 -41 205 -171 321 -279 274 -255 519 -601 635 -899 76
-194 208 -636 228 -761 3 -20 8 -42 11 -50 11 -32 47 -292 54 -401 9 -127 17
-148 62 -148 15 0 31 -5 34 -10 8 -13 -9 -66 -46 -145 -44 -95 -87 -217 -94
-271 -4 -27 -11 -63 -16 -79 -5 -17 -10 -50 -10 -75 -1 -25 -6 -56 -11 -69 -5
-13 -8 -117 -8 -230 0 -183 2 -221 25 -326 60 -286 166 -458 365 -597 152
-106 252 -134 475 -132 181 1 282 25 500 119 233 100 550 395 709 658 166 276
261 648 285 1117 14 273 1 345 -87 477 -63 95 -165 146 -424 210 -101 24 -206
56 -235 69 -117 56 -132 132 -49 254 40 59 193 212 281 282 125 98 315 201
395 214 39 6 40 6 56 -32 15 -36 21 -68 42 -214 6 -50 10 -55 32 -55 20 0 26
6 31 35 92 449 90 435 79 527 -10 90 -24 125 -65 163 -23 22 -37 25 -108 28
-82 3 -83 3 -192 -51 -123 -61 -223 -135 -369 -277 -218 -210 -324 -404 -410
-745 -49 -197 -51 -296 -7 -427 28 -85 68 -147 117 -181 40 -27 170 -77 358
-136 133 -42 273 -112 313 -158 128 -143 80 -375 -138 -665 -162 -216 -417
-420 -680 -546 -207 -99 -354 -126 -540 -100 -124 18 -169 36 -265 104 -121
85 -194 188 -247 344 -47 138 -53 258 -26 470 27 213 159 511 320 720 52 68
109 150 107 152 -1 2 9 15 22 30 42 45 70 85 85 122 14 32 14 36 0 36 -9 0
-14 -4 -10 -10 3 -5 -3 -18 -15 -30 -11 -11 -20 -25 -20 -31 0 -5 -4 -7 -10
-4 -5 3 -10 0 -10 -8 0 -19 -55 -88 -64 -80 -3 3 -6 -3 -6 -14 0 -11 -11 -26
-25 -33 -14 -7 -25 -22 -25 -32 0 -11 -5 -16 -11 -13 -6 4 -13 -1 -15 -11 -6
-23 -54 -49 -55 -31 0 7 -7 -1 -14 -18 -12 -25 -14 -26 -15 -9 0 12 12 38 26
59 20 30 23 40 12 46 -10 7 -9 9 5 9 9 0 17 6 17 14 0 8 5 16 12 18 7 3 4 7
-7 12 -11 4 -17 4 -13 1 3 -4 -9 -21 -27 -38 -18 -18 -47 -52 -64 -77 -66 -93
-138 -206 -145 -225 -4 -11 -15 -31 -26 -44 -32 -37 -49 -15 -39 53 20 149 31
405 26 581 -13 395 -48 587 -203 1114 -71 242 -219 575 -302 680 -15 18 -31
40 -37 49 -110 176 -376 473 -479 536 -17 10 -60 44 -96 75 -36 31 -101 88
-146 126 -104 91 -208 174 -314 254 -47 35 -119 91 -160 125 -41 34 -104 84
-140 111 -198 150 -349 294 -472 452 -154 197 -213 297 -267 459 -66 200 -80
278 -82 484 0 80 -5 153 -10 163 -10 17 -15 18 -56 10z m233 -1755 c31 -46 78
-108 103 -138 36 -43 38 -49 12 -25 -55 50 -196 245 -177 245 2 0 30 -37 62
-82z"/>
<path d="M13213 10965 c-9 -26 -9 -481 0 -605 20 -247 38 -355 87 -500 40
-120 156 -361 209 -436 75 -105 261 -286 491 -479 52 -44 100 -85 105 -91 31
-33 167 -126 311 -212 49 -29 127 -76 174 -104 47 -28 155 -91 240 -141 85
-49 162 -95 170 -101 8 -7 59 -38 113 -70 135 -79 318 -206 402 -279 39 -33
119 -111 178 -171 252 -258 351 -386 433 -561 20 -44 45 -96 56 -116 20 -41
23 -69 8 -69 -16 0 -90 49 -90 60 0 6 7 10 15 10 8 0 15 4 15 8 0 16 -35 41
-102 71 -132 59 -242 65 -373 19 -172 -61 -290 -191 -445 -492 -108 -210 -157
-390 -169 -616 l-7 -135 -101 -128 c-119 -152 -175 -257 -237 -449 -62 -189
-80 -286 -80 -448 -1 -150 16 -227 74 -325 53 -91 63 -113 57 -128 -6 -16
-178 -109 -292 -158 -38 -17 -88 -39 -110 -48 -192 -87 -432 -121 -596 -87
-79 17 -188 70 -245 120 -46 40 -159 200 -222 316 -22 41 -70 144 -106 229
-70 164 -90 194 -143 212 -70 23 -99 -8 -229 -241 -195 -353 -426 -613 -766
-863 -20 -15 -39 -27 -43 -27 -3 0 -36 -20 -73 -44 -274 -178 -644 -366 -1100
-556 -90 -38 -165 -70 -167 -72 -1 -2 -5 -16 -9 -32 l-7 -29 105 7 c127 8 142
12 124 34 -11 13 -8 13 19 -1 25 -14 53 -16 150 -12 260 11 503 38 643 70 198
47 466 159 604 255 197 136 359 346 530 687 25 50 51 95 58 99 16 10 82 -64
238 -271 222 -293 286 -351 458 -412 76 -28 80 -28 307 -27 220 0 234 1 334
29 164 44 336 117 466 198 172 107 339 234 480 364 90 83 124 102 274 153 68
23 167 60 220 84 294 131 548 361 690 627 44 83 117 293 157 450 14 57 32 129
40 159 49 188 63 446 35 610 -22 130 -100 377 -131 415 -10 12 -19 70 -25 156
-2 36 -7 81 -9 100 -3 19 -10 97 -16 173 -18 219 -105 600 -180 793 -87 219
-229 413 -491 669 -238 232 -392 341 -889 629 -206 120 -510 308 -591 366 -53
37 -148 115 -210 171 -63 57 -148 132 -189 167 -111 96 -189 177 -253 263 -31
42 -57 79 -57 82 0 3 -17 34 -38 68 -21 35 -49 90 -62 123 -13 33 -29 69 -36
80 -7 11 -22 56 -34 100 -19 73 -23 80 -45 80 -14 0 -25 -4 -25 -9 0 -5 -2 -7
-5 -4 -8 8 6 38 17 38 5 0 6 -4 3 -10 -3 -5 -2 -10 3 -10 6 0 12 7 16 15 3 8
0 14 -6 12 -6 -1 -13 4 -15 11 -3 8 1 10 11 6 20 -8 20 0 0 20 -8 9 -11 16 -5
16 16 0 13 56 -3 69 -11 9 -15 9 -19 -1 -3 -9 -7 -6 -13 7 -4 11 -12 23 -18
27 -7 5 -5 8 6 8 9 0 18 -6 21 -12 2 -7 8 -9 13 -5 4 4 2 17 -5 29 -7 11 -8
17 -2 13 6 -3 11 -1 11 4 0 6 -8 11 -17 11 -10 0 -28 3 -40 6 -16 5 -25 1 -30
-11z m2562 -4270 c134 -35 219 -96 319 -229 203 -274 306 -682 229 -912 -38
-114 -160 -252 -309 -352 -146 -97 -168 -110 -198 -118 l-29 -7 8 39 c4 21 10
44 14 49 16 20 100 252 125 345 45 165 32 330 -33 430 -9 14 -23 38 -31 53
-33 66 -143 131 -251 148 -161 25 -345 -25 -487 -133 l-54 -40 21 39 c11 21
32 79 46 128 51 174 100 282 174 381 70 93 156 162 231 185 43 13 163 10 225
-6z m-330 -1029 c171 -45 278 -171 279 -326 0 -89 -40 -163 -142 -263 -124
-120 -225 -156 -383 -136 -139 17 -230 63 -301 150 -73 90 -91 161 -64 250 18
59 66 117 171 208 69 60 76 65 95 70 8 2 62 16 120 31 121 32 156 35 225 16z
m-2219 -988 c45 -73 66 -118 55 -118 -4 0 -14 12 -22 28 -8 15 -18 32 -24 39
-5 7 -16 19 -23 28 -7 8 -11 15 -8 15 3 0 -2 16 -10 35 -8 19 -13 35 -11 35 2
0 22 -28 43 -62z m90 -153 c3 -14 11 -25 17 -25 6 0 7 -3 4 -7 -9 -8 -47 27
-47 44 0 23 19 14 26 -12z m-2516 -1275 c0 -5 -4 -10 -10 -10 -5 0 -10 5 -10
10 0 6 5 10 10 10 6 0 10 -4 10 -10z m40 -5 c-7 -8 -14 -15 -15 -15 -2 0 -5 7
-9 15 -4 10 1 15 16 15 17 0 18 -2 8 -15z m-105 -5 c-3 -5 -11 -10 -16 -10 -6
0 -7 5 -4 10 3 6 11 10 16 10 6 0 7 -4 4 -10z"/>
<path d="M7719 10871 c-12 -25 -24 -68 -25 -96 -1 -27 -3 -50 -4 -50 -13 0
-42 -458 -37 -590 5 -157 21 -242 78 -428 78 -255 162 -389 417 -662 245 -261
370 -377 542 -500 30 -22 159 -116 285 -210 127 -94 246 -182 265 -195 19 -13
37 -27 40 -30 3 -3 23 -19 45 -36 71 -52 98 -76 235 -212 74 -73 163 -170 198
-216 34 -45 73 -93 87 -106 14 -13 25 -27 25 -32 0 -4 17 -36 38 -70 135 -222
196 -403 218 -654 7 -82 -14 -181 -46 -226 -11 -15 -20 -31 -20 -35 0 -5 -30
-41 -66 -81 -55 -60 -136 -125 -189 -152 -5 -3 -29 -17 -51 -32 -59 -38 -146
-58 -255 -58 -123 0 -218 15 -277 42 -64 30 -189 156 -241 244 -76 130 -81
152 -81 380 0 223 3 214 -65 214 -19 0 -36 -4 -39 -8 -7 -12 -63 -220 -81
-302 -36 -160 -78 -234 -205 -361 -72 -72 -112 -104 -161 -127 -111 -52 -158
-65 -245 -64 -93 0 -147 22 -227 92 -68 60 -96 114 -106 202 -5 41 -15 87 -23
103 -15 27 -16 28 -22 8 -4 -12 -14 -24 -24 -28 -14 -5 -14 -7 -2 -15 13 -8
12 -10 -2 -10 -10 0 -18 -4 -18 -10 0 -5 -5 -10 -11 -10 -7 0 -9 12 -5 35 4
19 3 35 -2 35 -14 0 -38 -58 -68 -165 -34 -120 -114 -281 -182 -367 -108 -136
-398 -365 -562 -444 -77 -37 -337 -134 -360 -134 -11 0 -25 11 -33 28 -16 30
-77 217 -77 234 0 47 -140 282 -187 316 -97 66 -235 98 -337 76 -52 -11 -100
-40 -140 -84 -54 -60 -78 -123 -135 -360 -58 -242 -72 -324 -74 -425 -1 -93 1
-105 30 -166 41 -85 111 -148 207 -186 70 -28 73 -28 304 -28 275 0 261 7 243
-112 -22 -151 -118 -308 -306 -501 -296 -306 -666 -553 -1299 -868 -289 -143
-336 -172 -336 -205 0 -25 22 -29 66 -14 56 19 327 73 484 96 74 11 162 24
195 29 33 5 92 14 130 19 263 37 542 147 705 278 111 89 238 220 301 311 88
126 191 352 220 480 17 79 47 293 54 387 9 133 9 133 58 146 163 46 376 131
474 190 267 161 485 360 631 576 23 33 47 63 54 65 7 3 24 -6 38 -19 32 -31
97 -64 185 -94 95 -32 212 -33 313 -1 39 12 72 28 72 34 0 6 3 9 6 5 11 -11
99 40 175 101 86 69 148 135 185 198 39 66 57 57 65 -31 8 -82 49 -191 111
-295 36 -60 80 -111 163 -187 24 -22 98 -57 139 -65 159 -30 211 -37 290 -37
77 -1 103 4 194 35 221 77 353 183 472 380 83 136 125 296 145 554 4 47 9 99
11 115 12 95 29 389 29 500 0 142 -17 387 -35 505 -28 179 -42 256 -51 266 -5
7 -9 16 -7 20 4 18 -35 130 -69 198 -76 152 -196 331 -214 320 -5 -3 -9 -2 -8
3 4 21 -2 33 -16 33 -8 0 -15 6 -15 14 0 8 -8 17 -18 20 -11 4 -25 17 -32 31
-7 13 -17 22 -22 19 -4 -3 -8 1 -8 9 0 8 -7 20 -15 27 -11 9 -12 15 -5 20 12
7 -64 110 -81 110 -6 0 -8 4 -5 9 7 10 -141 150 -244 231 -36 29 -74 59 -85
69 -45 37 -151 115 -355 261 -376 269 -477 355 -704 595 -201 214 -233 252
-313 370 -61 91 -117 221 -154 356 -12 43 -24 78 -28 77 -18 -2 -31 3 -31 13
0 5 5 7 10 4 6 -4 10 6 10 24 0 16 -4 32 -9 35 -5 3 -11 17 -13 31 -3 13 -2
23 1 20 4 -2 7 14 6 36 0 21 -2 39 -5 39 -3 0 -6 26 -7 58 -3 78 -10 99 -32
105 -16 4 -25 -5 -42 -42z m475 -1799 c16 -18 27 -34 25 -36 -2 -2 -33 28 -69
68 -41 44 -50 58 -25 36 22 -19 53 -50 69 -68z m236 -238 c75 -70 100 -92 285
-238 88 -70 174 -138 190 -152 l30 -25 -33 18 c-44 24 -248 177 -362 272 -79
66 -270 252 -282 276 -10 18 19 -7 172 -151z"/>
<path d="M5350 8475 c-161 -56 -285 -142 -450 -312 -230 -235 -284 -330 -389
-677 -75 -248 -65 -499 25 -605 52 -62 190 -139 295 -166 99 -25 238 -74 305
-106 76 -37 125 -80 166 -144 27 -42 33 -62 36 -122 5 -96 -10 -158 -64 -266
-183 -363 -567 -693 -959 -826 -168 -56 -283 -65 -443 -32 -248 52 -411 211
-477 463 -25 97 -36 260 -24 370 22 222 72 367 209 613 74 132 96 165 219 324
57 75 107 145 111 156 12 31 1 75 -19 75 -53 -1 -360 -362 -463 -545 -173
-307 -222 -449 -274 -795 -12 -80 -6 -323 11 -440 20 -136 58 -252 121 -368
45 -85 123 -190 166 -227 119 -101 251 -174 348 -191 14 -3 49 -9 79 -14 131
-24 335 -5 471 42 159 56 409 211 575 356 116 102 271 305 346 455 35 68 109
247 138 332 62 183 105 552 99 855 -3 184 -5 198 -29 250 -31 66 -116 161
-173 195 -57 33 -101 48 -300 99 -286 74 -346 105 -346 175 0 106 145 275 403
473 119 91 247 157 333 172 54 9 62 -12 94 -236 9 -66 15 -78 40 -78 17 0 22
11 36 75 1 6 10 55 19 110 9 55 21 109 25 120 15 40 32 204 28 266 -11 170
-116 233 -288 174z"/>
<path d="M8501 8251 c-94 -153 -139 -242 -147 -288 -9 -57 23 -121 95 -194 49
-48 162 -139 174 -139 3 0 38 -20 79 -45 42 -25 79 -45 85 -45 39 0 242 329
255 414 2 15 -25 38 -117 100 -77 51 -160 119 -231 188 -61 59 -115 108 -121
108 -6 0 -38 -45 -72 -99z"/>
<path d="M7731 4908 c-55 -73 -181 -334 -181 -375 0 -24 11 -45 38 -75 62 -71
134 -139 173 -164 20 -12 48 -34 63 -47 31 -29 137 -87 159 -87 43 0 112 90
196 256 58 113 72 155 61 173 -4 7 -47 37 -95 66 -51 31 -144 105 -218 172
-71 65 -135 121 -143 126 -9 5 -26 -9 -53 -45z"/>
<path d="M11851 4656 c-12 -19 -41 -78 -65 -132 -77 -176 -77 -176 -105 -169
-34 9 -214 134 -286 199 -55 51 -61 54 -77 39 -27 -25 -145 -264 -153 -312 -7
-42 -6 -45 41 -93 87 -88 285 -208 344 -208 48 1 64 27 161 253 18 42 38 77
43 77 6 0 34 -19 61 -43 98 -85 161 -125 231 -146 l69 -21 27 28 c25 25 128
220 143 270 9 31 -6 46 -92 94 -66 36 -194 127 -232 166 -16 15 -55 32 -76 32
-7 0 -23 -15 -34 -34z m57 -31 c-3 -3 -9 2 -12 12 -6 14 -5 15 5 6 7 -7 10
-15 7 -18z"/>
<path d="M4372 4373 c-22 -49 -59 -127 -81 -175 -25 -54 -47 -88 -56 -88 -15
0 -188 113 -313 205 -34 26 -67 45 -73 43 -17 -6 -149 -315 -149 -349 0 -34
22 -59 125 -138 71 -54 236 -141 269 -141 35 0 49 23 117 180 70 165 77 176
93 157 66 -79 255 -200 331 -212 50 -8 49 -10 113 120 62 125 85 198 69 218
-7 7 -59 42 -117 77 -102 62 -244 162 -256 181 -14 24 -34 2 -72 -78z"/>
<path d="M871 3012 l-204 -2 5 -64 c3 -35 8 -69 12 -74 4 -7 1109 -9 3454 -6
4180 6 3448 6 9722 -1 2841 -2 5175 -2 5188 0 20 5 22 11 22 75 l0 70 -1792 2
c-2778 3 -16178 3 -16407 0z"/>
<path d="M777 2244 c-4 -141 -7 -338 -7 -436 l0 -178 213 -1 c322 -1 716 -1
870 0 l137 1 0 103 c0 207 -11 326 -34 360 -29 43 -123 87 -216 101 -100 15
-106 19 -79 62 24 40 20 65 -11 57 -11 -3 -49 -31 -84 -63 -63 -57 -64 -57
-142 -64 -124 -11 -171 -24 -199 -57 -34 -42 -45 -90 -53 -242 l-7 -132 -125
0 -125 0 -3 368 -2 367 -43 0 c-23 0 -51 3 -63 6 -21 5 -21 3 -27 -252z m721
-325 c2 -117 -1 -159 -10 -166 -8 -6 -43 -8 -88 -4 l-75 6 -3 141 c-2 114 0
143 12 153 16 14 97 30 136 28 l25 -2 3 -156z m319 128 c20 -20 33 -271 15
-289 -14 -14 -152 -11 -169 4 -14 12 -19 288 -5 302 13 14 142 0 159 -17z"/>
<path d="M3652 2491 c-8 -5 -12 -99 -12 -362 -1 -195 -5 -360 -9 -368 -11 -17
-218 -22 -232 -5 -5 6 -10 105 -11 220 l-3 209 -182 0 -182 0 -45 -44 c-71
-69 -73 -80 -77 -311 l-4 -205 159 -1 c122 -1 160 -5 167 -15 10 -15 2 -99
-13 -138 -4 -13 -7 -25 -6 -27 2 -1 32 7 68 19 65 22 65 22 83 77 31 93 -27
85 619 88 315 2 576 6 580 8 5 3 8 30 8 60 l0 54 -190 0 c-170 0 -190 2 -198
18 -12 24 1 269 15 283 15 15 84 28 149 29 48 0 53 -3 92 -45 40 -44 85 -70
102 -60 5 3 11 31 15 63 3 31 8 79 11 106 l5 49 -198 -5 c-227 -5 -255 -13
-302 -82 -37 -54 -39 -68 -42 -213 -1 -67 -6 -128 -10 -134 -5 -9 -37 -12
-110 -10 -57 1 -107 5 -111 7 -4 3 -8 169 -8 369 0 338 -1 364 -17 368 -29 7
-98 6 -111 -2z m-414 -531 c2 -58 0 -128 -3 -156 l-6 -52 -72 -4 c-110 -7
-107 -11 -107 151 0 99 4 142 13 149 16 13 59 20 122 18 l50 -1 3 -105z"/>
<path d="M7740 2126 c0 -255 -3 -367 -11 -372 -13 -8 -228 -8 -236 0 -3 3 -5
102 -4 221 l2 215 -81 0 c-76 0 -80 -1 -80 -22 -1 -13 -1 -106 0 -208 0 -102
-4 -191 -8 -198 -6 -9 -32 -12 -93 -10 l-84 3 -2 215 -1 215 -74 0 -73 0 -2
-214 c0 -117 -5 -217 -10 -221 -4 -4 -44 -4 -88 -1 l-80 6 -3 210 c-2 152 -6
211 -15 217 -6 4 -43 8 -81 8 l-69 0 4 -217 4 -218 -117 -3 -116 -3 -6 53 c-4
29 -5 60 -5 68 1 8 1 84 1 168 l-2 153 -72 -3 -73 -3 -3 -217 c-2 -160 -6
-217 -15 -221 -6 -2 -64 -2 -127 2 l-115 6 0 218 0 219 -177 -4 -176 -3 -44
-31 c-84 -62 -83 -57 -83 -307 l0 -222 1360 3 c748 2 1366 3 1373 2 11 0 13
76 10 428 l-3 427 -66 3 -66 3 -6 -158 c-4 -87 -7 -254 -7 -370 0 -163 -3
-213 -12 -214 -67 -5 -214 5 -220 14 -4 7 -8 173 -8 370 l0 357 -70 0 -70 0 0
-364z m-1902 -213 c3 -186 9 -176 -98 -165 l-65 7 -3 130 c-3 152 1 161 74
181 93 25 89 32 92 -153z"/>
<path d="M11350 2120 l0 -370 -115 0 -115 0 0 33 c0 17 -2 115 -4 217 l-5 185
-75 3 -76 3 -2 -218 -3 -218 -122 -3 -123 -3 0 221 0 221 -77 -3 -78 -3 0
-215 0 -215 -119 -3 c-82 -2 -123 1 -133 9 -12 10 -14 46 -13 198 1 102 1 197
1 210 l-1 24 -168 -5 c-199 -5 -228 -15 -277 -93 l-30 -48 -3 -214 -3 -214
153 2 c85 2 159 0 165 -4 9 -6 11 -31 6 -87 l-6 -80 30 0 c39 0 97 62 113 119
8 32 17 42 38 48 29 7 932 10 1092 3 l95 -4 3 437 2 437 -75 0 -75 0 0 -370z
m-1206 -77 c10 -65 7 -281 -5 -288 -10 -7 -159 -8 -165 -2 -2 2 -6 61 -9 133
-5 98 -3 133 7 146 14 18 97 46 139 47 23 1 27 -4 33 -36z"/>
<path d="M11638 2068 c-2 -233 1 -429 6 -435 5 -8 33 -13 72 -13 l64 0 0 435
0 435 -69 0 -70 0 -3 -422z"/>
<path d="M15198 2123 l-3 -368 -108 -3 -108 -3 7 -57 c3 -31 8 -60 11 -64 2
-5 83 -8 179 -8 l174 0 0 435 0 435 -75 0 -75 0 -2 -367z"/>
<path d="M15488 2073 c-2 -230 -1 -426 1 -435 4 -19 49 -24 110 -12 l31 7 0
428 0 429 -69 0 -70 0 -3 -417z"/>
<path d="M11003 2423 c-19 -7 -17 -89 1 -96 8 -3 31 -3 50 0 35 5 36 7 36 48
0 36 -4 44 -22 49 -26 7 -48 7 -65 -1z"/>
<path d="M16072 2419 c-19 -7 -23 -15 -20 -46 l3 -38 50 0 50 0 3 38 c3 32 0
38 -23 47 -31 12 -33 12 -63 -1z"/>
<path d="M5627 2413 c-3 -5 -8 -27 -12 -50 l-7 -43 40 0 c64 0 72 7 72 56 l0
44 -44 0 c-25 0 -47 -3 -49 -7z"/>
<path d="M5837 2413 c-4 -3 -7 -26 -7 -50 l0 -43 44 0 c48 0 56 9 56 66 0 33
-1 34 -43 34 -24 0 -47 -3 -50 -7z"/>
<path d="M6293 2413 c-8 -3 -13 -23 -13 -49 l0 -45 58 3 c57 3 57 3 60 36 2
18 -2 40 -9 48 -11 13 -70 18 -96 7z m47 -50 c0 -7 -4 -13 -10 -13 -5 0 -10
12 -10 28 0 21 2 24 10 12 5 -8 10 -21 10 -27z"/>
<path d="M16277 2413 c-4 -3 -7 -24 -7 -45 l0 -38 50 0 c44 0 50 3 56 24 10
40 -11 66 -55 66 -21 0 -41 -3 -44 -7z"/>
<path d="M14544 2278 c-16 -13 -40 -36 -55 -52 -24 -27 -33 -30 -120 -36 -102
-8 -127 -15 -188 -56 -53 -34 -61 -65 -61 -229 0 -71 -4 -136 -9 -144 -11 -17
-209 -17 -226 0 -5 5 -12 77 -15 162 -6 165 -10 181 -70 225 -43 32 -112 42
-299 42 l-166 0 6 -106 c4 -58 9 -108 12 -111 14 -13 62 11 101 52 48 49 74
59 137 52 87 -10 116 -31 123 -91 7 -55 17 -226 14 -228 -2 -1 -88 -4 -193 -7
l-190 -6 -3 -35 c-2 -20 1 -46 5 -58 l9 -23 779 0 c429 0 786 1 794 1 12 0 13
33 7 211 -9 277 -19 299 -151 333 -32 9 -81 16 -108 16 -26 0 -57 5 -68 11
-20 10 -20 10 0 45 12 19 21 39 21 45 0 18 -57 9 -86 -13z m221 -220 c4 -3 10
-71 13 -149 5 -105 4 -146 -5 -154 -11 -12 -150 -10 -163 2 -3 3 -6 69 -8 147
-4 174 -4 174 91 166 36 -3 69 -8 72 -12z m-320 -153 l0 -160 -79 2 c-43 1
-81 5 -85 8 -7 8 -4 259 4 293 5 22 9 23 83 20 l77 -3 0 -160z"/>
<path d="M17869 2190 c-10 -7 -12 -55 -10 -224 l3 -216 -167 0 c-133 0 -167 3
-171 14 -6 16 15 85 45 142 18 35 41 181 41 259 l0 25 -290 0 -290 0 0 -104
c0 -95 2 -109 29 -159 25 -47 51 -134 51 -167 0 -16 -237 -13 -247 3 -4 6 -6
105 -4 220 l3 207 -81 0 -81 0 -2 -217 -3 -218 -114 -3 c-66 -1 -118 1 -124 7
-6 6 -12 98 -14 208 -3 109 -6 204 -9 212 -3 10 -36 12 -167 9 -186 -4 -217
-14 -272 -91 l-30 -42 -6 -210 c-3 -115 -4 -212 -3 -214 2 -1 420 -2 931 -1
1233 3 1426 4 1438 11 6 3 21 3 35 1 14 -2 213 -6 443 -9 l418 -5 -3 29 c-2
21 -12 32 -40 46 -21 9 -38 18 -39 20 0 1 -4 76 -8 167 -8 201 -19 230 -96
269 -46 24 -63 26 -228 31 -98 3 -184 2 -191 -2 -13 -8 -20 -138 -10 -190 8
-42 38 -35 95 22 l50 50 98 0 c73 0 102 -4 110 -14 13 -16 37 -266 27 -291 -5
-13 -44 -15 -318 -13 l-313 3 -6 130 c-12 257 -44 292 -272 301 -67 3 -138 6
-158 8 -20 2 -42 0 -50 -4z m-1594 -116 c13 -13 15 -40 13 -167 l-3 -152 -65
-3 c-115 -5 -110 -12 -109 136 1 70 4 138 8 152 7 24 29 32 133 49 4 1 14 -6
23 -15z m1854 -3 c24 -5 47 -15 52 -22 5 -8 8 -77 6 -154 l-2 -140 -40 -3
c-65 -6 -105 6 -115 34 -11 29 -15 250 -5 277 8 19 35 21 104 8z m-676 -59
c-2 -39 -12 -72 -39 -122 -50 -96 -76 -122 -111 -114 -16 3 -33 13 -40 21 -18
23 -83 212 -83 244 l0 30 138 -3 137 -3 -2 -53z"/>
<path d="M2257 2183 c-4 -3 -7 -102 -7 -219 0 -201 -1 -213 -19 -219 -11 -3
-31 -3 -45 1 -15 3 -60 3 -101 -1 l-75 -7 0 -54 0 -54 278 -1 c152 0 315 -1
362 -2 l85 -2 0 200 c-1 195 -1 202 -27 257 -36 77 -57 88 -180 99 -126 10
-262 11 -271 2z m295 -125 c25 -13 29 -38 26 -178 l-3 -125 -73 -3 c-70 -3
-72 -2 -82 23 -11 30 -14 288 -3 299 9 9 111 -3 135 -16z"/>
<path d="M4855 2181 c-83 -20 -124 -68 -135 -157 -11 -86 -20 -394 -11 -395 3
0 29 -2 56 -3 152 -8 256 -20 264 -30 5 -7 4 -39 -3 -83 -9 -52 -10 -73 -2
-73 26 1 93 40 124 72 45 48 52 101 52 421 l0 257 -157 -1 c-87 -1 -171 -4
-188 -8z m183 -265 c1 -89 -1 -153 -7 -159 -13 -13 -142 -9 -159 5 -15 13 -16
251 -1 280 10 18 48 26 119 24 l45 -1 3 -149z"/>
<path d="M8752 2180 c-49 -12 -109 -55 -139 -102 -27 -40 -28 -46 -28 -172 0
-126 1 -133 28 -179 54 -91 74 -95 469 -99 l236 -3 4 207 c2 148 7 211 15 219
19 19 155 32 165 16 4 -7 8 -107 8 -223 0 -241 -8 -222 96 -220 l59 1 0 58
c-1 31 -2 159 -3 283 l-2 226 -167 -4 c-187 -5 -206 -10 -262 -74 -47 -53 -53
-75 -58 -222 -3 -73 -10 -135 -15 -138 -11 -7 -373 -5 -392 2 -24 9 -38 87
-35 184 4 86 6 93 32 116 45 38 86 32 151 -21 32 -26 66 -45 80 -45 22 0 25 5
30 53 3 28 7 72 8 97 l3 45 -125 2 c-69 1 -140 -2 -158 -7z"/>
<path d="M12282 2179 c-58 -11 -98 -36 -136 -82 l-31 -39 0 -151 c0 -178 12
-220 64 -232 16 -3 41 -15 54 -25 23 -18 45 -19 313 -20 159 0 294 0 300 0 9
0 11 54 6 205 l-5 205 34 14 c45 18 145 30 153 18 3 -5 8 -106 12 -223 3 -118
9 -218 13 -222 5 -4 37 -7 72 -5 l64 3 -1 100 c0 55 -1 182 -2 283 l-2 182
-147 0 c-161 -1 -199 -9 -259 -55 -52 -40 -74 -98 -80 -208 -3 -51 -7 -111
-10 -134 l-5 -43 -192 0 c-106 0 -198 4 -206 9 -10 7 -17 45 -24 129 -11 139
-3 170 50 185 45 13 75 3 128 -43 81 -70 134 -46 121 55 -3 22 -5 48 -5 57 -2
39 -28 48 -134 47 -56 -1 -122 -5 -145 -10z"/>
<path d="M9042 1521 c-9 -5 -12 -24 -10 -52 3 -44 3 -44 44 -47 51 -4 65 12
58 60 -5 26 -13 38 -28 42 -29 8 -49 7 -64 -3z"/>
<path d="M10603 1520 c-19 -8 -23 -17 -23 -55 l0 -45 38 0 c46 0 62 14 62 55
0 50 -26 65 -77 45z"/>
<path d="M12382 1478 l3 -53 45 0 c45 0 45 0 48 38 4 50 -11 67 -60 67 l-39 0
3 -52z"/>
<path d="M12571 1522 c-6 -2 -11 -24 -11 -48 l0 -45 52 3 c57 3 66 14 54 63
-5 18 -14 24 -45 27 -22 2 -45 2 -50 0z"/>
<path d="M16579 1524 c-16 -5 -33 -69 -23 -86 3 -4 28 -8 55 -8 l50 0 -3 48
c-3 45 -5 47 -33 49 -16 0 -37 -1 -46 -3z"/>
<path d="M16770 1521 c-21 -6 -26 -14 -28 -49 l-3 -42 55 0 56 0 0 40 c0 52
-23 67 -80 51z"/>
<path d="M18812 1517 c-14 -16 -19 -68 -8 -85 10 -17 95 -16 102 1 6 17 -10
59 -31 80 -20 20 -48 22 -63 4z"/>
<path d="M8840 1482 c0 -45 14 -62 51 -62 50 0 59 9 59 56 l0 44 -55 0 -55 0
0 -38z"/>
<path d="M3006 1294 c-42 -42 -10 -114 50 -114 56 0 87 76 46 113 -23 21 -76
22 -96 1z"/>
<path d="M6397 1298 c-27 -22 -31 -61 -7 -91 56 -70 156 7 104 81 -17 25 -69
30 -97 10z"/>
<path d="M8656 1288 c-34 -48 -4 -108 53 -108 54 0 87 60 57 105 -22 34 -87
36 -110 3z"/>
<path d="M9477 1298 c-27 -22 -31 -61 -7 -91 56 -70 156 7 104 81 -17 25 -69
30 -97 10z"/>
<path d="M15377 1292 c-22 -25 -21 -75 1 -95 25 -22 75 -21 95 1 21 23 22 76
1 96 -21 22 -77 20 -97 -2z"/>
<path d="M17094 1285 c-30 -45 3 -105 57 -105 57 0 87 60 53 108 -23 33 -88
31 -110 -3z"/>
<path d="M11728 1281 c-71 -23 -108 -74 -108 -148 0 -46 4 -58 35 -92 19 -21
67 -55 106 -76 76 -40 91 -58 66 -83 -23 -22 -71 -6 -75 26 -3 20 -9 22 -68
22 l-64 0 0 -39 c0 -77 72 -131 175 -131 109 0 175 53 175 141 0 70 -19 99
-90 139 -111 63 -125 74 -125 100 0 20 6 26 28 28 33 4 57 -13 57 -39 0 -17 8
-19 65 -19 l65 0 0 34 c0 41 -34 94 -77 119 -37 21 -125 31 -165 18z"/>
<path d="M16430 1284 c-97 -39 -125 -77 -118 -160 4 -47 10 -61 39 -89 19 -19
66 -51 104 -72 49 -27 71 -45 73 -60 6 -44 -73 -41 -84 3 -6 22 -11 24 -71 24
l-66 0 6 -46 c9 -81 70 -124 178 -124 81 0 131 27 160 87 16 33 19 53 14 80
-11 58 -38 87 -123 132 -90 46 -106 62 -97 91 12 39 85 21 85 -22 0 -15 9 -18
65 -18 l65 0 0 34 c0 41 -34 94 -77 119 -33 19 -126 31 -153 21z"/>
<path d="M937 1026 c-37 -139 -67 -256 -67 -260 0 -3 31 -6 69 -6 l69 0 6 35
7 35 63 0 64 0 6 -35 7 -35 69 0 c40 0 70 4 70 10 0 5 -25 105 -56 222 -31
117 -60 230 -65 251 l-10 37 -83 0 -82 0 -67 -254z m167 1 c21 -90 22 -87 -20
-87 l-37 0 7 43 c9 54 26 120 31 115 2 -1 11 -34 19 -71z"/>
<path d="M1340 1020 l0 -260 70 0 70 0 0 260 0 260 -70 0 -70 0 0 -260z"/>
<path d="M1810 1020 l0 -260 70 0 70 0 0 106 0 105 43 -3 42 -3 3 -102 3 -103
64 0 65 0 0 260 0 260 -65 0 -65 0 0 -100 0 -100 -45 0 -45 0 0 100 0 100 -70
0 -70 0 0 -260z"/>
<path d="M2800 1205 c0 -72 -1 -75 -19 -65 -11 5 -38 10 -61 10 -75 0 -120
-70 -120 -188 0 -126 45 -202 120 -202 23 0 50 5 60 10 13 7 21 7 25 0 3 -5
35 -10 71 -10 l64 0 0 260 0 260 -70 0 -70 0 0 -75z m-12 -177 c18 -18 16
-133 -3 -148 -28 -23 -45 5 -45 74 0 55 11 86 30 86 3 0 11 -5 18 -12z"/>
<path d="M3377 1026 c-37 -139 -67 -256 -67 -260 0 -3 31 -6 69 -6 l69 0 6 35
7 35 64 0 64 0 7 -35 6 -35 69 0 c43 0 69 4 69 11 0 9 -109 432 -126 492 -5
14 -18 17 -88 17 l-82 0 -67 -254z m169 2 c19 -89 19 -88 -22 -88 l-37 0 7 43
c10 62 27 120 33 114 3 -3 11 -34 19 -69z"/>
<path d="M3780 1020 l0 -260 70 0 70 0 0 260 0 260 -70 0 -70 0 0 -260z"/>
<path d="M4250 1020 l0 -260 70 0 69 0 3 128 3 127 54 -127 54 -128 69 0 68 0
0 260 0 260 -65 0 -65 0 0 -127 c0 -69 -3 -123 -7 -119 -5 4 -31 60 -58 124
l-51 117 -72 3 -72 3 0 -261z"/>
<path d="M5070 1020 l0 -260 64 0 c36 0 68 5 71 10 4 7 12 7 25 0 24 -13 86
-13 111 0 10 6 29 30 41 53 19 35 23 57 23 137 -1 102 -14 144 -57 174 -26 18
-90 21 -119 6 -18 -10 -19 -7 -19 65 l0 75 -70 0 -70 0 0 -260z m188 8 c18
-18 16 -133 -3 -148 -28 -23 -45 5 -45 74 0 55 11 86 30 86 3 0 11 -5 18 -12z"/>
<path d="M6766 1028 c-36 -139 -66 -256 -66 -260 0 -5 31 -8 69 -8 l69 0 6 35
7 35 63 0 64 0 6 -35 7 -35 69 0 c39 0 70 4 70 9 0 6 -29 120 -65 256 -36 135
-65 248 -65 250 0 3 -38 5 -83 5 l-84 0 -67 -252z m179 -46 l7 -42 -40 0 -39
0 14 68 c8 37 17 74 20 82 6 17 26 -40 38 -108z"/>
<path d="M10634 1270 c-31 -12 -54 -49 -54 -87 0 -26 -4 -33 -20 -33 -17 0
-20 -7 -20 -50 0 -43 3 -50 20 -50 19 0 20 -7 20 -145 l0 -146 68 3 67 3 0
140 0 140 33 3 c33 3 33 4 30 50 -3 45 -4 47 -35 50 -18 2 -33 6 -33 10 0 15
16 30 35 33 16 3 21 13 23 47 l3 42 -58 -1 c-32 0 -68 -4 -79 -9z"/>
<path d="M13532 1023 l3 -258 68 -3 67 -3 0 129 c0 103 3 132 15 142 12 10 18
10 30 0 12 -10 15 -39 15 -141 l0 -129 70 0 70 0 0 145 c0 157 -9 199 -51 229
-34 24 -98 21 -126 -6 l-23 -21 0 86 0 87 -70 0 -70 0 2 -257z"/>
<path d="M15030 1204 c0 -69 -2 -75 -17 -68 -31 13 -100 16 -122 5 -40 -22
-64 -88 -65 -176 0 -134 39 -205 116 -205 22 0 49 5 61 11 16 9 22 9 25 0 2
-7 29 -11 68 -11 l64 0 0 260 0 260 -65 0 -65 0 0 -76z m-22 -172 c30 -20 27
-144 -5 -156 -29 -12 -43 13 -43 78 0 73 16 98 48 78z"/>
<path d="M9230 1200 c0 -47 -2 -50 -25 -50 -23 0 -25 -3 -25 -49 0 -44 3 -50
23 -53 21 -3 22 -8 27 -126 4 -107 8 -126 24 -138 24 -17 72 -27 117 -22 l34
3 0 55 c0 49 -2 55 -22 58 -22 3 -23 8 -23 88 l0 84 30 0 c29 0 30 1 30 50 0
49 -1 50 -29 50 -28 0 -30 2 -33 48 l-3 47 -62 3 -63 3 0 -51z"/>
<path d="M15570 1200 c0 -43 -3 -50 -20 -50 -17 0 -20 -7 -20 -50 0 -43 3 -50
20 -50 19 0 20 -7 20 -114 0 -106 2 -117 24 -142 20 -24 32 -28 90 -32 l66 -4
0 60 c0 55 -2 61 -22 64 -21 3 -23 9 -26 86 l-3 82 31 0 c29 0 30 1 30 50 0
49 -1 50 -30 50 -29 0 -30 1 -30 50 l0 50 -65 0 -65 0 0 -50z"/>
<path d="M2295 1136 c-38 -17 -72 -54 -80 -87 -6 -26 -6 -26 61 -32 50 -4 71
-1 81 9 19 18 28 18 48 -2 27 -27 11 -39 -61 -44 -107 -8 -134 -31 -134 -115
0 -38 5 -52 29 -76 25 -24 38 -29 78 -29 28 0 58 6 69 15 25 19 34 19 34 0 0
-12 14 -15 65 -15 l65 0 0 145 c0 171 -8 196 -73 226 -49 22 -138 24 -182 5z
m120 -236 c10 -16 -14 -50 -36 -50 -22 0 -34 22 -25 45 6 17 51 21 61 5z"/>
<path d="M2990 955 l0 -195 65 0 65 0 0 195 0 195 -65 0 -65 0 0 -195z"/>
<path d="M4764 1136 c-38 -17 -74 -61 -74 -91 0 -20 6 -23 63 -28 49 -4 66 -2
80 11 22 20 52 6 52 -24 0 -16 -10 -20 -70 -25 -38 -3 -80 -10 -91 -17 -52
-28 -58 -138 -9 -179 35 -31 111 -32 149 -2 l26 20 0 -20 c0 -19 6 -21 65 -21
l65 0 0 154 c0 171 -5 187 -74 220 -41 19 -139 21 -182 2z m126 -245 c0 -40
-61 -56 -68 -17 -5 22 13 36 46 36 15 0 22 -6 22 -19z"/>
<path d="M5535 1136 c-38 -17 -72 -54 -80 -87 -6 -26 -6 -26 61 -32 50 -4 71
-1 81 9 18 17 24 17 48 0 11 -8 16 -19 12 -30 -5 -12 -20 -16 -67 -16 -66 0
-113 -18 -130 -49 -5 -11 -10 -41 -10 -66 0 -38 5 -52 29 -76 25 -24 38 -29
78 -29 28 0 58 6 69 15 25 19 34 19 34 0 0 -12 14 -15 65 -15 l65 0 0 145 c0
171 -8 196 -73 226 -49 22 -138 24 -182 5z m125 -237 c0 -23 -22 -49 -41 -49
-22 0 -34 22 -25 45 6 17 66 21 66 4z"/>
<path d="M5810 1145 c0 -5 86 -337 96 -367 4 -15 17 -18 69 -18 70 0 66 -4 80
93 4 26 11 49 15 52 4 3 14 -28 22 -68 l13 -72 67 -3 c61 -3 67 -1 74 20 23
74 91 354 88 360 -3 5 -31 8 -64 8 -67 0 -64 4 -81 -109 -6 -45 -14 -79 -18
-76 -3 4 -13 46 -21 93 l-16 87 -53 3 c-30 2 -58 -1 -62 -5 -5 -5 -14 -44 -20
-88 -6 -44 -15 -84 -19 -88 -4 -5 -14 33 -21 85 l-14 93 -67 3 c-38 2 -68 0
-68 -3z"/>
<path d="M6378 1143 c-2 -5 -2 -92 0 -195 l3 -188 65 0 64 0 0 195 0 195 -64
0 c-36 0 -66 -3 -68 -7z"/>
<path d="M7228 1128 c-42 -25 -58 -54 -58 -109 0 -51 38 -93 101 -109 24 -6
55 -15 68 -21 22 -9 23 -12 9 -25 -12 -13 -20 -14 -37 -5 -11 7 -21 16 -21 21
0 6 -30 10 -66 10 l-66 0 6 -32 c13 -65 69 -98 167 -98 105 0 159 39 159 116
0 54 -34 89 -109 110 -31 8 -62 17 -68 19 -15 5 -17 31 -3 40 16 10 50 -5 50
-21 0 -11 15 -14 60 -14 59 0 60 0 60 29 0 36 -34 79 -76 97 -50 21 -132 17
-176 -8z"/>
<path d="M7592 1133 c-45 -22 -65 -56 -65 -109 0 -67 33 -96 141 -124 23 -6
42 -17 42 -24 0 -23 -29 -27 -50 -6 -16 16 -34 20 -80 20 -56 0 -60 -1 -60
-24 0 -32 36 -75 76 -92 44 -18 148 -18 184 1 113 58 84 183 -50 215 -67 16
-85 27 -69 46 16 20 37 17 49 -6 9 -17 21 -20 70 -20 56 0 60 2 60 23 0 35
-38 87 -75 103 -46 19 -132 17 -173 -3z"/>
<path d="M7957 1129 c-53 -28 -76 -83 -77 -174 0 -133 56 -195 176 -195 71 0
116 24 147 79 28 47 28 185 1 231 -32 55 -67 74 -142 77 -53 3 -75 -1 -105
-18z m117 -105 c21 -20 21 -113 2 -140 -12 -15 -18 -17 -33 -8 -14 8 -19 26
-21 73 -4 81 17 111 52 75z"/>
<path d="M8355 1138 c-70 -38 -102 -113 -92 -215 12 -112 64 -163 170 -163 74
0 128 27 151 74 30 63 24 72 -46 80 -35 3 -64 2 -66 -2 -1 -5 -9 -18 -17 -28
-11 -15 -18 -17 -32 -8 -25 15 -31 135 -9 154 20 16 46 6 53 -20 6 -22 16 -23
87 -14 42 6 46 9 46 35 0 34 -43 87 -87 105 -39 17 -130 18 -158 2z"/>
<path d="M8647 1144 c-4 -4 -7 -92 -7 -196 l0 -188 70 0 70 0 -2 193 -3 192
-60 3 c-34 2 -64 0 -68 -4z"/>
<path d="M8894 1136 c-38 -17 -74 -61 -74 -91 0 -20 6 -23 63 -28 49 -4 66 -2
80 11 22 20 52 6 52 -24 0 -16 -10 -20 -70 -25 -88 -7 -111 -19 -126 -68 -16
-52 -4 -105 28 -131 35 -28 111 -27 147 1 l26 20 0 -20 c0 -19 6 -21 65 -21
l65 0 0 154 c0 171 -5 187 -74 220 -41 19 -139 21 -182 2z m126 -245 c0 -40
-61 -56 -68 -17 -5 22 13 36 46 36 15 0 22 -6 22 -19z"/>
<path d="M9460 955 l0 -195 65 0 65 0 0 195 0 195 -65 0 -65 0 0 -195z"/>
<path d="M9707 1129 c-53 -28 -76 -82 -77 -174 0 -132 56 -195 173 -195 99 0
151 42 168 135 14 75 -1 168 -33 203 -50 54 -159 69 -231 31z m117 -105 c21
-20 21 -113 2 -140 -12 -15 -18 -17 -33 -8 -14 8 -19 26 -21 73 -4 81 17 111
52 75z"/>
<path d="M10020 955 l0 -195 65 0 65 0 0 121 c0 121 8 159 35 159 27 0 35 -38
35 -159 l0 -121 66 0 65 0 -3 166 -3 166 -33 29 c-37 33 -94 39 -128 14 -25
-19 -34 -19 -34 0 0 12 -14 15 -65 15 l-65 0 0 -195z"/>
<path d="M10895 1136 c-50 -22 -83 -69 -90 -131 -20 -159 40 -245 172 -245
117 0 173 63 173 194 0 89 -25 144 -79 174 -45 25 -128 29 -176 8z m104 -110
c18 -22 10 -136 -11 -149 -31 -20 -48 8 -48 79 0 49 4 65 18 73 23 14 28 13
41 -3z"/>
<path d="M11190 955 l0 -196 68 3 67 3 3 109 c1 61 8 116 14 123 6 7 25 13 43
13 32 0 33 1 44 61 6 34 8 66 5 70 -8 14 -58 10 -81 -6 -19 -13 -22 -13 -27 0
-4 11 -22 15 -71 15 l-65 0 0 -195z"/>
<path d="M12022 979 l3 -171 28 -24 c34 -29 116 -34 137 -9 7 8 16 15 21 15 5
0 9 -7 9 -15 0 -12 14 -15 65 -15 l65 0 0 195 0 196 -67 -3 -67 -3 0 -127 c-1
-135 -10 -163 -44 -142 -14 10 -17 31 -20 143 l-3 131 -65 0 -65 0 3 -171z"/>
<path d="M12400 955 l0 -195 65 0 64 0 3 131 c3 115 5 133 21 143 36 22 47
-15 47 -151 l0 -123 66 0 65 0 -3 166 -3 166 -33 29 c-37 33 -94 39 -128 14
-25 -19 -34 -19 -34 0 0 12 -14 15 -65 15 l-65 0 0 -195z"/>
<path d="M12780 955 l0 -195 65 0 65 0 0 128 c0 86 4 132 12 140 16 16 23 15
42 -4 13 -12 16 -40 16 -140 l0 -124 66 0 65 0 -3 166 -3 166 -33 29 c-37 33
-94 39 -128 14 -25 -19 -34 -19 -34 0 0 12 -14 15 -65 15 l-65 0 0 -195z"/>
<path d="M13223 1131 c-40 -19 -73 -61 -73 -94 0 -21 116 -30 145 -11 29 19
55 8 55 -22 0 -23 -3 -24 -59 -24 -73 0 -105 -11 -127 -45 -17 -27 -22 -84
-10 -123 16 -50 136 -72 176 -32 l20 20 0 -20 c0 -18 7 -20 71 -20 l70 0 -3
154 c-3 149 -4 155 -28 182 -52 56 -156 71 -237 35z m127 -245 c0 -35 -52 -51
-64 -20 -9 22 11 44 40 44 19 0 24 -5 24 -24z"/>
<path d="M14132 1133 c-40 -20 -72 -58 -72 -88 0 -20 6 -23 63 -28 49 -4 66
-2 80 11 22 20 50 6 55 -27 3 -19 -1 -21 -58 -21 -87 0 -126 -19 -141 -68 -16
-53 -5 -106 28 -132 37 -29 118 -28 150 2 l23 21 0 -21 c0 -20 5 -22 65 -22
l65 0 0 154 c0 142 -2 155 -22 181 -12 15 -36 34 -54 41 -45 19 -141 17 -182
-3z m128 -242 c0 -40 -61 -56 -68 -17 -5 22 13 36 46 36 15 0 22 -6 22 -19z"/>
<path d="M14440 955 l0 -196 68 3 67 3 3 132 c2 109 5 132 19 137 35 14 43
-11 43 -146 l0 -129 68 3 67 3 0 140 c0 159 -5 187 -42 221 -30 28 -96 33
-130 9 -19 -13 -22 -13 -27 0 -4 11 -22 15 -71 15 l-65 0 0 -195z"/>
<path d="M15360 955 l0 -196 68 3 67 3 0 190 0 190 -67 3 -68 3 0 -196z"/>
<path d="M15864 1131 c-43 -26 -64 -59 -64 -99 0 -69 37 -105 137 -131 47 -13
63 -29 42 -42 -20 -13 -27 -11 -49 11 -16 16 -33 20 -80 20 -69 0 -75 -11 -40
-68 26 -42 74 -62 150 -62 109 0 160 38 160 118 0 57 -31 85 -122 113 -54 16
-69 24 -66 37 5 26 48 28 55 2 5 -19 12 -21 67 -18 59 3 61 4 58 28 -5 36 -28
68 -65 90 -44 27 -140 27 -183 1z"/>
<path d="M16795 1136 c-75 -33 -109 -130 -87 -242 19 -92 71 -134 167 -134 64
0 119 22 141 55 19 29 35 84 26 89 -4 2 -35 6 -68 10 -56 6 -62 5 -67 -14 -7
-29 -37 -37 -53 -15 -20 27 -18 120 2 140 20 20 36 15 49 -13 10 -24 30 -26
100 -14 35 7 40 10 37 32 -11 71 -77 120 -163 120 -30 -1 -67 -7 -84 -14z"/>
<path d="M17084 1137 c-2 -7 -3 -94 -2 -192 l3 -180 68 -3 67 -3 0 196 0 195
-65 0 c-44 0 -67 -4 -71 -13z"/>
<path d="M17337 1128 c-58 -34 -81 -91 -75 -187 8 -130 57 -181 175 -181 79 0
142 40 155 99 5 21 -107 44 -123 25 -21 -26 -69 -10 -69 23 0 10 25 13 100 13
l100 0 0 58 c0 72 -24 120 -76 149 -53 31 -135 31 -187 1z m109 -96 c6 -4 13
-15 17 -24 5 -15 1 -18 -28 -18 -36 0 -46 15 -23 38 14 14 19 14 34 4z"/>
<path d="M17644 1137 c-2 -7 -3 -94 -2 -192 l3 -180 68 -3 67 -3 0 129 c0 103
3 132 15 142 12 10 18 10 30 0 12 -10 15 -39 15 -141 l0 -129 70 0 70 0 0 138
c0 155 -10 202 -47 232 -35 28 -99 27 -130 -2 l-23 -21 0 21 c0 20 -5 22 -65
22 -44 0 -67 -4 -71 -13z"/>
<path d="M18100 1131 c-64 -34 -75 -60 -75 -176 0 -89 3 -108 21 -132 31 -42
80 -63 149 -63 90 0 146 41 161 118 6 29 4 32 -18 32 -14 0 -46 3 -72 6 -42 6
-46 5 -46 -14 0 -22 -22 -35 -44 -26 -30 12 -32 129 -2 153 18 15 43 4 49 -21
5 -19 11 -20 69 -13 35 4 65 9 66 10 9 8 -11 66 -30 91 -43 54 -159 72 -228
35z"/>
<path d="M18470 1128 c-64 -44 -75 -69 -75 -171 0 -78 3 -97 23 -128 29 -48
75 -69 149 -69 79 0 142 40 155 99 5 21 -107 44 -123 25 -21 -26 -69 -10 -69
23 0 10 25 13 100 13 111 0 103 -6 100 80 -2 56 -36 111 -83 133 -52 25 -136
22 -177 -5z m114 -104 c25 -24 19 -34 -19 -34 -36 0 -46 15 -23 38 16 16 23
15 42 -4z"/>
<path d="M18834 1131 c-43 -26 -64 -59 -64 -99 0 -69 37 -105 137 -131 47 -13
63 -29 42 -42 -20 -13 -27 -11 -49 11 -16 16 -33 20 -81 20 l-61 0 7 -27 c17
-71 69 -103 164 -103 110 0 161 38 161 118 0 58 -29 85 -119 112 -56 16 -72
25 -69 38 5 26 48 28 55 2 5 -19 12 -21 67 -18 59 3 61 4 58 28 -5 36 -28 68
-65 90 -44 27 -140 27 -183 1z"/>
<path d="M1520 976 l0 -54 53 -4 c29 -1 86 -2 125 0 l72 4 0 54 0 54 -125 0
-125 0 0 -54z"/>
<path d="M3960 976 l0 -55 98 -3 c154 -5 152 -6 152 58 l0 54 -125 0 -125 0 0
-54z"/>
</g>
</svg>
